
<svg version="1.0" xmlns="http://www.w3.org/2000/svg"
 width="512.000000pt" height="512.000000pt" viewBox="0 0 512.000000 512.000000"
 preserveAspectRatio="xMidYMid meet">

<g transform="translate(0.000000,512.000000) scale(0.100000,-0.100000)"
 stroke="none">
<path d="M1259 5049 c-147 -8 -247 -33 -367 -91 -237 -116 -414 -308 -510
-553 -63 -160 -64 -170 -59 -393 3 -179 7 -216 26 -277 27 -84 102 -236 139
-285 15 -19 35 -46 43 -60 25 -40 123 -135 186 -182 65 -48 237 -138 298 -155
150 -43 235 -56 352 -51 67 3 144 13 178 22 223 64 252 77 375 159 154 103
302 287 371 462 51 128 69 230 69 391 0 161 -8 202 -69 376 -53 151 -205 345
-351 450 -72 51 -229 133 -275 143 -17 4 -47 13 -67 21 -20 7 -67 16 -105 19
-37 4 -77 7 -88 9 -11 1 -77 -1 -146 -5z m160 -849 c115 -58 145 -201 63 -292
-49 -54 -81 -68 -152 -68 -61 0 -63 1 -116 53 -45 43 -56 60 -63 101 -15 84
18 156 96 206 40 26 55 30 91 26 23 -3 60 -15 81 -26z"/>
<path d="M3355 5049 c-22 -4 -59 -8 -82 -8 -88 -2 -297 -89 -417 -175 -93 -66
-236 -221 -288 -312 -115 -200 -161 -412 -138 -630 15 -138 43 -231 108 -363
66 -133 162 -251 283 -344 90 -70 274 -163 349 -176 30 -5 69 -15 85 -21 17
-7 84 -15 151 -17 150 -7 289 18 439 79 221 89 404 259 532 495 7 12 22 50 34
85 52 154 60 193 66 333 5 129 3 149 -21 250 -15 61 -31 119 -36 130 -4 11
-20 47 -35 80 -147 335 -480 571 -830 590 -60 3 -121 7 -135 9 -14 2 -43 -1
-65 -5z m151 -835 c45 -18 99 -67 120 -106 8 -15 14 -55 14 -89 l0 -62 -58
-59 -59 -58 -71 0 c-70 0 -71 0 -122 48 -41 38 -54 58 -65 101 -13 49 -12 58
6 106 23 61 47 86 109 114 56 24 77 25 126 5z"/>
<path d="M2105 3285 c-149 -153 -260 -223 -460 -290 -192 -64 -512 -54 -686
21 -76 33 -70 89 -69 -675 0 -376 3 -687 6 -692 3 -5 189 -9 414 -9 l410 0 16
-25 c14 -22 16 -45 12 -150 -4 -89 -2 -128 7 -135 13 -11 1256 -17 1274 -6 7
5 11 54 11 145 0 94 4 142 13 154 11 15 51 17 432 19 l420 3 5 220 5 220 100
0 100 0 105 -61 c58 -34 132 -75 165 -91 33 -17 74 -38 91 -48 65 -39 62 -73
60 632 -1 728 8 671 -93 610 -32 -19 -103 -59 -158 -88 -55 -29 -120 -63 -145
-76 -39 -21 -56 -23 -135 -21 l-90 3 -3 42 c-4 52 -21 59 -76 34 -22 -10 -77
-30 -121 -42 -71 -21 -101 -23 -270 -23 l-190 1 -125 42 c-215 74 -359 173
-523 359 l-38 42 -177 -1 -177 -1 -110 -113z"/>
<path d="M2007 1178 c-14 -18 -32 -46 -41 -63 -9 -16 -25 -41 -35 -55 -10 -14
-61 -92 -112 -175 -51 -82 -118 -188 -149 -235 -77 -116 -141 -215 -235 -365
-44 -70 -90 -140 -102 -155 -23 -27 -30 -59 -15 -61 42 -6 142 -4 159 4 12 5
36 30 54 56 18 25 54 71 80 101 48 56 64 78 221 285 50 66 112 145 138 175 26
30 84 105 129 165 46 61 96 124 111 140 15 17 41 51 59 77 17 26 46 61 63 77
20 19 29 35 25 45 -6 14 -29 16 -166 16 l-160 0 -24 -32z"/>
<path d="M2450 1194 c0 -9 21 -39 46 -68 26 -28 54 -62 63 -76 9 -14 57 -77
106 -140 50 -62 142 -179 206 -259 63 -80 128 -164 145 -186 74 -100 300 -381
314 -390 25 -16 161 -15 167 2 3 7 -21 53 -53 101 -87 132 -140 214 -160 249
-11 18 -93 147 -184 288 -91 140 -190 295 -220 343 -30 49 -65 103 -78 120
l-23 32 -165 0 c-144 0 -164 -2 -164 -16z"/>
</g>
</svg>
