
<svg version="1.0" xmlns="http://www.w3.org/2000/svg"
 width="512.000000pt" height="512.000000pt" viewBox="0 0 512.000000 512.000000"
 preserveAspectRatio="xMidYMid meet">

<g transform="translate(0.000000,512.000000) scale(0.100000,-0.100000)"
stroke="none">
<path d="M1896 5021 c-9 -14 42 -70 85 -92 82 -41 219 -243 253 -372 8 -28 21
-70 29 -92 18 -46 30 -167 31 -305 0 -75 -7 -121 -32 -220 -36 -140 -87 -291
-133 -395 -18 -38 -35 -79 -39 -90 -16 -41 -84 -181 -100 -205 -9 -14 -20 -38
-24 -55 -4 -16 -33 -91 -65 -165 -82 -187 -107 -252 -135 -347 -29 -97 -40
-119 -66 -133 -48 -26 -130 65 -130 144 0 72 -75 219 -153 299 -51 52 -83 74
-177 120 -63 31 -128 66 -145 77 -36 24 -54 25 -62 4 -4 -11 22 -42 84 -102
79 -77 93 -95 115 -157 40 -106 51 -236 44 -480 -4 -115 -10 -244 -13 -285
-12 -155 -7 -452 10 -540 9 -47 19 -121 23 -165 3 -44 15 -106 25 -137 10 -32
19 -78 19 -103 0 -25 6 -58 14 -73 7 -15 17 -47 21 -71 7 -43 51 -159 80 -213
8 -14 15 -34 15 -44 0 -28 96 -214 144 -279 81 -109 106 -139 216 -250 96 -97
116 -113 177 -136 159 -62 418 -86 740 -68 186 10 221 16 493 80 83 20 236 71
315 104 118 50 365 345 484 575 15 30 53 102 83 160 30 58 68 141 83 185 15
44 39 105 52 135 30 68 71 214 85 300 5 36 21 121 34 189 35 179 34 382 -1
502 -13 46 -25 96 -25 111 0 14 -20 81 -45 147 -65 173 -85 269 -85 426 0 111
3 136 20 168 22 40 26 72 10 82 -20 13 -46 -6 -71 -52 -31 -56 -89 -249 -89
-295 0 -18 -7 -55 -15 -83 -9 -27 -20 -92 -25 -143 -6 -51 -15 -102 -20 -113
-6 -11 -19 -52 -29 -92 -36 -138 -84 -221 -195 -336 -128 -131 -188 -171 -257
-171 -36 0 -60 6 -82 22 -59 40 -106 91 -113 122 -3 17 -12 40 -19 51 -33 53
-45 214 -24 330 6 33 14 92 19 130 5 39 13 99 19 135 13 81 14 452 1 540 -32
221 -80 391 -161 571 -91 201 -211 349 -522 648 -238 229 -271 255 -412 331
-55 29 -111 61 -125 70 -33 24 -206 110 -219 110 -5 0 -12 -4 -15 -9z"/>
</g>
</svg>
