
<svg version="1.0" xmlns="http://www.w3.org/2000/svg"
 width="582.000000pt" height="879.000000pt" viewBox="0 0 582.000000 879.000000"
 preserveAspectRatio="xMidYMid meet">

<g transform="translate(0.000000,879.000000) scale(0.100000,-0.100000)"
stroke="none">
<path d="M2612 8754 l-233 -24 -262 -80 -262 -79 -240 -128 c-236 -126 -244
-131 -447 -297 -202 -166 -211 -174 -379 -379 -170 -207 -174 -213 -300 -449
l-129 -240 -75 -251 c-65 -213 -88 -274 -150 -397 -167 -331 -168 -497 -6
-818 62 -121 85 -183 151 -400 l78 -257 128 -240 c126 -236 131 -243 299 -448
166 -203 175 -211 382 -381 208 -172 215 -176 446 -300 217 -116 255 -133 504
-220 149 -51 291 -106 316 -120 68 -40 119 -115 155 -226 28 -89 31 -112 43
-355 21 -414 12 -826 -26 -1260 -2 -27 -7 -84 -10 -125 -3 -41 -12 -138 -20
-215 -15 -151 -21 -220 -31 -360 -3 -49 -9 -122 -13 -161 -4 -39 -3 -113 3
-165 9 -88 13 -99 61 -179 48 -79 56 -88 126 -126 143 -80 234 -80 371 -2 58
34 77 52 112 107 62 97 63 100 76 188 11 84 1 280 -35 664 -65 683 -79 1160
-50 1634 15 245 19 278 45 359 36 108 90 183 164 225 28 17 170 70 314 120
246 84 277 97 500 217 233 125 240 130 447 300 203 167 215 179 375 373 161
196 168 207 296 444 l131 243 78 258 c67 219 89 278 148 389 168 324 169 504
4 828 -64 125 -84 177 -148 392 l-73 249 -131 244 c-128 241 -133 248 -299
452 -166 203 -174 211 -380 381 -207 170 -216 176 -449 302 l-237 129 -263 80
-262 80 -250 25 c-294 29 -292 29 -593 -1z m376 -7421 c29 -73 32 -93 48 -325
9 -138 14 -325 12 -425 -4 -207 -12 -233 -88 -269 -42 -21 -47 -21 -85 -6 -54
21 -80 46 -94 91 -16 55 -14 346 5 616 14 211 18 237 46 313 l31 82 47 0 48 0
30 -77z"/>
</g>
</svg>
