
<svg version="1.0" xmlns="http://www.w3.org/2000/svg"
 width="512.000000pt" height="512.000000pt" viewBox="0 0 512.000000 512.000000"
 preserveAspectRatio="xMidYMid meet">

<g transform="translate(0.000000,512.000000) scale(0.100000,-0.100000)"
stroke="none">
<path d="M2120 4995 c-353 -74 -371 -80 -587 -181 -39 -19 -76 -34 -82 -34 -6
0 -39 -17 -73 -38 -35 -21 -76 -43 -93 -51 -39 -17 -241 -159 -330 -233 -108
-89 -342 -338 -409 -435 -148 -216 -172 -257 -241 -398 -68 -140 -135 -321
-135 -364 0 -38 49 -56 214 -76 67 -8 159 -22 206 -31 47 -8 130 -19 185 -23
100 -8 297 -35 520 -71 66 -11 172 -23 235 -26 l116 -7 27 34 c15 19 55 69 88
111 33 43 75 88 92 100 18 12 61 45 97 74 62 49 91 65 240 129 36 15 75 35 87
43 27 17 43 69 43 141 0 30 4 82 10 115 22 141 40 289 50 412 6 72 17 168 25
213 8 46 17 124 20 175 4 50 13 127 20 171 21 126 28 241 15 264 -17 32 -146
27 -340 -14z"/>
<path d="M3218 4913 c-22 -6 -20 4 -59 -261 -5 -35 -14 -126 -19 -204 -6 -77
-19 -199 -30 -271 -12 -72 -25 -176 -30 -231 -5 -56 -16 -173 -24 -261 -9 -88
-17 -179 -20 -203 -5 -55 15 -80 128 -161 145 -105 214 -198 337 -454 45 -95
63 -104 235 -117 76 -6 195 -18 264 -25 69 -8 168 -19 220 -25 52 -6 140 -18
194 -27 55 -8 152 -19 215 -23 64 -5 151 -16 194 -24 107 -22 144 -21 157 3
14 28 12 154 -4 252 -8 46 -19 118 -25 160 -11 79 -55 245 -76 289 -7 14 -16
43 -19 64 -4 21 -14 48 -21 60 -8 12 -21 42 -30 66 -26 75 -140 293 -196 376
-103 154 -158 221 -299 366 -223 232 -420 380 -675 506 -82 41 -163 78 -180
83 -16 4 -57 19 -90 32 -64 27 -119 38 -147 30z"/>
<path d="M86 2415 c-9 -9 -16 -31 -16 -48 2 -93 20 -240 38 -302 11 -38 35
-119 53 -180 18 -60 51 -153 74 -205 23 -52 56 -129 74 -170 43 -99 115 -225
224 -388 64 -96 126 -172 225 -276 154 -161 218 -217 377 -329 101 -70 434
-247 467 -247 7 0 30 -9 50 -20 20 -10 69 -28 110 -38 40 -10 81 -22 90 -26
13 -6 26 1 48 22 24 25 30 39 30 74 0 63 28 330 40 380 5 24 15 117 20 208 5
91 19 224 30 295 35 232 51 413 39 432 -6 10 -70 65 -143 123 -80 63 -149 127
-173 160 -57 77 -120 192 -154 280 -35 87 -57 110 -108 110 -20 0 -74 6 -121
14 -47 8 -150 22 -230 31 -80 9 -170 20 -200 25 -30 5 -118 14 -195 20 -135 9
-174 14 -405 45 -198 26 -226 27 -244 10z"/>
<path d="M3390 1951 c-75 -116 -246 -277 -365 -342 -49 -27 -115 -57 -146 -65
-31 -9 -61 -25 -68 -36 -15 -24 -46 -253 -61 -438 -5 -74 -17 -175 -25 -225
-8 -49 -19 -137 -24 -195 -6 -58 -14 -127 -20 -155 -5 -27 -15 -121 -21 -208
-16 -208 -26 -196 157 -173 76 10 161 23 188 28 28 6 79 16 115 23 36 8 103
27 150 43 47 16 108 38 135 47 81 29 343 153 415 197 178 110 358 260 536 448
94 99 123 135 240 305 57 83 145 236 163 285 15 39 27 69 65 155 23 55 39 108
53 176 3 15 -1 30 -9 37 -8 6 -98 21 -199 32 -101 11 -220 24 -264 30 -44 5
-116 14 -160 19 -44 6 -152 17 -240 26 -88 8 -232 25 -320 37 -88 12 -179 24
-202 26 l-41 4 -52 -81z"/>
</g>
</svg>
